<?xml version="1.0" encoding="UTF-8" standalone="no"?>
<!DOCTYPE svg PUBLIC "-//W3C//DTD SVG 20010904//EN"
"http://www.w3.org/TR/2001/REC-SVG-20010904/DTD/svg10.dtd">
<!-- Created with Sodipodi ("http://www.sodipodi.com/") -->
<svg
   xmlns="http://www.w3.org/2000/svg"
   xmlns:sodipodi="http://sodipodi.sourceforge.net/DTD/sodipodi-0.dtd"
   xmlns:xlink="http://www.w3.org/1999/xlink"
   id="svg602"
   sodipodi:version="0.34"
   width="210mm"
   height="297mm"
   xml:space="preserve"
   sodipodi:docname="model"><defs
   id="defs604" /><sodipodi:namedview
   id="base" /><g
   id="g1148"
   transform="translate(-36.86631,20.10892)"><path
   style="fill:none;fill-rule:evenodd;stroke:black;stroke-opacity:1;stroke-width:1pt;stroke-linejoin:miter;stroke-linecap:butt;fill-opacity:1;"
   d="M 512.7759 327.6054 C 496.8081 327.6054 491.5783 326.7535 481.7636 312.8813 "
   id="path1135" /><path
   style="fill:none;fill-rule:evenodd;stroke:black;stroke-opacity:1;stroke-width:1pt;stroke-linejoin:miter;stroke-linecap:butt;fill-opacity:1;"
   d="M 511.9381 330.119 C 495.0221 330.119 489.5738 326.1623 479.7597 312.8745 C 479.612 312.6745 479.3836 312.5492 479.1956 312.3866 "
   id="path1136" /><path
   style="fill:none;fill-rule:evenodd;stroke:black;stroke-opacity:1;stroke-width:1pt;stroke-linejoin:miter;stroke-linecap:butt;fill-opacity:1;"
   d="M 514.4517 323.416 C 497.0259 323.416 493.1923 323.7177 480.3207 310.2408 "
   id="path1137" /><path
   style="fill:none;fill-rule:evenodd;stroke:black;stroke-opacity:1;stroke-width:1pt;stroke-linejoin:miter;stroke-linecap:butt;fill-opacity:1;"
   d="M 531.2091 319.2266 C 515.2692 319.2266 504.0877 315.4064 492.8909 304.1044 "
   id="path1138" /><path
   style="fill:none;fill-rule:evenodd;stroke:black;stroke-opacity:1;stroke-width:1pt;stroke-linejoin:miter;stroke-linecap:butt;fill-opacity:1;"
   d="M 513.6138 319.2267 C 500.8969 319.2267 489.8514 308.735 484.1836 298.1268 "
   id="path1139" /></g><rect
   style="font-size:12;fill:#e4e419;fill-opacity:0.2089;fill-rule:evenodd;stroke:#4f3030;stroke-width:1.375;stroke-opacity:0.7975;stroke-dasharray:none;"
   id="rect985"
   width="377.455017"
   height="124.440437"
   x="83.7062721"
   y="170.695587" /><rect
   style="font-size:12;fill:#e4e419;fill-opacity:0.2089;fill-rule:evenodd;stroke:#4f3030;stroke-width:1.770476;stroke-opacity:0.7975;"
   id="rect984"
   width="81.1292222"
   height="124.863122"
   x="52.6278389"
   y="276.031333"
   transform="matrix(0.621364,-0.783522,0,1,0,0)" /><rect
   style="font-size:12;fill:#e4e419;fill-opacity:0.2089;fill-rule:evenodd;stroke:#4f3030;stroke-width:1.786333;stroke-opacity:0.7975;"
   id="rect1138"
   width="82.8494762"
   height="124.470488"
   x="632.348482"
   y="718.341116"
   transform="matrix(0.644219,-0.764841,0,1,0,0)" /><g
   id="g1045"
   transform="matrix(4.040761,0,0,4.44958,-1293.675,-1777.023)"><rect
   style="font-size:12;fill:#808080;fill-rule:evenodd;"
   id="rect1000"
   width="14.4795732"
   height="16.6621151"
   x="345.727325"
   y="452.723267" /><path
   sodipodi:type="arc"
   style="font-size:12;fill:#76625a;fill-rule:evenodd;stroke:#2e2015;stroke-width:1.5;"
   id="path994"
   d="M 367.3267 359.0331 A 6.51709 25.32776 0 1 0 354.2925 359.0331 A 6.51709 25.32776 0 1 0  367.3267 359.0331 z"
   sodipodi:cx="360.80957"
   sodipodi:cy="359.033081"
   sodipodi:rx="6.51708984"
   sodipodi:ry="25.3277588"
   transform="matrix(0.603448,0,0,0.484888,127.4614,286.7483)" /><path
   style="font-size:12;fill:none;fill-rule:evenodd;stroke:#000000;stroke-width:0.584198;"
   d="M 349.1883 450.7943 C 347.1517 450.131 345.9626 448.4423 345.2621 451.3672 C 344.8808 452.9598 344.9553 454.6601 344.7195 456.2696 C 344.1051 460.4608 343.1486 466.7679 346.6982 470.4111 C 347.8641 471.6078 347.796 469.6033 347.8815 468.9936 C 348.4637 464.8383 349.9074 460.964 350.1082 456.7123 C 350.1794 455.207 350.9179 450.8057 348.9102 449.7195 C 348.0738 449.2669 346.8552 451.8393 346.7624 452.7658 C 346.45 455.8912 346.5705 458.9803 346.0732 462.1041 C 345.5707 465.2601 345.6625 468.5909 348.3755 471.3749 C 348.6015 471.6067 349.2437 469.5221 349.3016 469.3628 C 350.969 464.7701 353.0555 455.5025 350.6145 451.168 C 348.4653 447.3519 347.1602 452.8245 346.7234 454.0371 C 344.8526 459.2294 344.3084 466.8723 348.4168 471.7018 C 350.0753 473.6514 351.5847 468.2074 351.6898 467.9034 C 353.1336 463.7277 354.0858 454.528 351.2682 450.5507 C 350.8919 450.0194 349.598 451.609 349.2249 452.1634 C 344.9905 458.4564 345.9633 464.3534 349.4121 470.6928 C 350.418 472.542 352.594 469.7356 352.849 469.2146 C 355.6201 463.5557 355.5702 460.066 354.0363 454.3219 C 353.7702 453.3252 352.7372 448.9226 351.0106 448.6971 C 350.0331 448.5694 349.1778 452.4538 349.0759 452.9459 C 347.9416 458.4294 347.0489 464.9597 347.7001 470.453 C 348.1768 474.475 351.5733 473.9395 353.2302 470.8618 C 355.5449 466.5622 354.3266 455.9402 352.5497 451.3699 C 352.2177 450.5157 350.8994 447.7465 349.265 449.2399 C 347.0899 451.2276 346.9261 458.3677 346.691 460.8995 C 346.4539 463.4508 345.4283 470.5062 347.4555 472.5337 C 349.0864 474.1648 350.6569 472.0834 350.9026 471.0973 C 352.2355 465.7465 355.1429 455.1733 351.1769 450.2057 C 350.3377 449.1547 348.7061 448.1932 346.9668 449.1805 C 343.9044 450.9188 345.1191 458.0446 344.6766 460.6899 C 344.268 463.1326 343.6061 470.3989 346.0524 472.3521 C 348.0866 473.976 350.1216 471.1035 350.5157 470.1881 C 352.5781 465.3982 352.6766 459.0126 352.3993 454.0107 C 352.2784 451.8289 350.512 446.4951 345.7419 449.5472 C 343.8286 450.7714 343.4942 456.7118 343.4445 458.5056 C 343.3411 462.2501 343.6011 469.0332 347.9387 471.8198 C 349.7297 472.9703 352.3056 473.3125 353.1166 471.4453 C 354.8768 467.3923 354.3675 462.2389 355.1871 457.9699 C 355.7343 455.1197 356.1157 451.2184 352.6793 448.9724 C 351.6693 448.3123 350.9927 451.4495 350.9352 451.8811 C 350.161 457.7005 348.5847 463.0082 350.4674 468.8312 C 350.9582 470.3492 351.4943 472.3849 354.0089 472.9837 C 354.3184 473.0574 354.629 471.6557 354.6301 471.6507 C 355.6478 467.4029 357.1336 463.5489 357.5808 459.2016 C 357.8594 456.4931 358.3953 451.2955 354.7918 449.4496 C 353.3109 448.691 352.2134 453.6865 352.2015 453.7284 C 350.6925 459.0527 348.4043 469.131 355.8854 472.8909 C 356.2405 473.0693 356.4156 471.7042 356.5466 471.2033 C 357.2744 468.4193 357.7256 465.5129 358.1803 462.7019 C 358.6703 459.6719 359.8664 452.5803 356.1045 450.3339 C 354.7548 449.5279 352.9062 454.0681 352.7568 454.511 C 351.3565 458.661 350.6801 465.6013 351.4095 469.8673 C 351.6096 471.0374 354.1726 475.2881 356.5345 472.8685 C 358.9242 470.4206 358.7546 461.8369 358.6322 458.9691 C 358.5324 456.6303 358.6313 451.3153 355.754 449.7038 C 353.1736 448.2586 351.9396 453.8968 351.8169 454.4078 C 350.5108 459.8458 348.4605 468.3739 355.2692 472.6393 C 357.4609 474.0123 357.8811 468.5788 357.9351 468.2658 C 358.7655 463.4523 360.757 454.2893 357.6492 449.8305 C 355.3279 446.5001 354.1865 453.8755 354.0866 454.4794 C 353.196 459.8682 353.1719 468.0742 357.6284 472.8253 C 358.7267 473.9962 358.0744 471.1003 358.0577 470.7456 C 357.9185 467.7796 359.2564 464.3715 359.459 461.2827 C 359.6569 458.2655 359.7411 453.6047 356.9832 451.0522 C 356.8841 450.9605 356.6842 451.1036 356.3238 451.7749 C 354.6622 454.8699 354.78 461.0433 354.4827 464.5312 C 354.2569 467.1798 353.91 471.4433 356.361 473.6649 C 357.6771 474.8578 358.3093 470.0052 358.3684 469.5705 C 359.244 463.1317 358.0739 457.8451 356.0759 451.5513 C 355.8159 450.7325 355.5105 448.7636 353.9081 448.8308 C 352.5278 448.8887 351.5598 453.6969 351.4289 454.5204 C 350.6148 459.6395 350.9104 465.0242 350.9044 470.1735 C 350.9036 470.8534 351.975 474.4405 353.6469 473.4284 C 356.8823 471.4693 358.1635 463.8071 358.4254 461.2652 C 358.7663 457.9591 359.2375 454.4749 358.2824 451.1953 C 358.2532 451.095 358.0837 451.6142 358.0675 451.6613 C 356.574 456.0253 355.2189 460.2552 356.265 464.7246 C 356.3525 465.0979 356.4784 465.8094 356.5439 466.1641 "
   id="path999" /><path
   style="font-size:12;fill:none;fill-rule:evenodd;stroke:#000000;stroke-width:0.540929;"
   d="M 347.8725 448.845 C 346.4318 449.4239 345.5712 453.9543 345.226 455.2373 C 344.2217 458.971 344.6607 463.0569 344.656 466.8491 C 344.6542 468.3846 345.2502 471.6717 347.0871 472.3816 C 349.9006 473.4691 349.782 471.4863 350.1886 469.6241 C 351.3375 464.361 353.3428 454.6663 350.1304 449.7962 C 350.0329 449.6482 349.7384 450.2939 349.7272 450.3176 C 348.602 452.6843 347.9531 457.5088 347.6348 460.0583 C 347.2431 463.1947 346.6641 467.2423 349.213 469.9501 C 349.4578 470.2102 349.8593 469.4948 349.9631 469.1796 C 351.1785 465.4874 350.932 459.9872 351.1136 456.1291 C 351.225 453.7622 351.2328 454.1449 351.1299 452.7322 C 351.1044 452.3804 350.7083 453.6622 350.7054 453.6756 C 350.0784 456.5186 349.9797 459.404 349.8907 462.2833 C 349.9029 461.8871 349.8553 465.5187 349.8582 465.7065 C 349.8609 465.8759 349.9166 464.9822 349.9195 464.9256 C 350.0514 462.411 350.5436 459.3412 349.598 456.9328 C 349.5795 456.8857 349.4623 456.9276 349.4171 456.961 C 347.9935 458.0101 348.7971 464.5594 349.235 465.5665 C 349.8573 466.9978 350.7272 463.4534 350.8736 462.79 C 351.313 460.7986 351.4855 458.7018 351.7216 456.6985 C 351.8634 455.4954 351.5964 456.0453 351.3556 456.7724 C 350.8533 458.2889 349.656 463.6361 350.7715 464.7575 C 351.8642 465.8559 352.8729 461.8135 352.8918 461.7239 C 353.3098 459.7464 353.7857 455.4426 352.5098 453.681 C 352.0962 453.11 351.2455 454.0995 351.1112 454.3685 C 349.3215 457.9552 350.1918 466.7265 353.194 469.772 C 355.2328 471.8402 356.8601 465.8985 357.0003 465.3173 C 357.9687 461.3047 358.5568 452.6434 356.6007 448.9237 C 355.4448 446.7258 352.8642 450.1431 352.4634 451.0383 C 350.6731 455.037 350.0267 465.2887 351.7425 469.4171 C 352.6611 471.6274 355.0216 472.8623 356.2076 470.0296 C 358.0061 465.7342 359.1897 455.8917 357.3652 451.4954 C 355.9344 448.0478 355.4611 454.1927 355.4533 454.2924 C 355.0774 459.1212 354.4336 465.8694 355.4165 470.4975 C 355.6775 471.7266 356.7272 469.6198 356.7891 469.4265 C 358.3376 464.5891 357.7301 458.9473 356.7118 454.0998 C 356.2904 452.0937 354.5634 455.4464 354.4581 455.6563 C 352.6661 459.2301 350.9589 464.5982 352.0565 468.4045 C 352.3758 469.5118 352.8632 466.8208 353.0327 465.5966 C 353.7187 460.6434 353.0935 455.6635 351.3376 450.8988 C 351.3082 450.819 351.1403 451.0706 350.8294 451.6883 C 349.8018 453.73 348.4475 459.0139 348.3453 461.0674 C 348.2627 462.7251 348.3461 467.1694 350.229 468.0747 C 350.3567 468.136 350.4861 466.9312 350.5307 466.3117 C 350.8508 461.8599 351.1709 457.1787 350.7385 452.7315 C 350.6903 452.2354 350.168 449.7172 349.3273 450.8302 C 347.3031 453.5101 347.4944 458.225 347.0005 461.3687 C 346.6473 463.6174 345.7868 470.47 348.2508 471.9107 C 350.0521 472.964 350.9359 467.6388 351.0645 467.1072 C 352.365 461.735 352.3892 455.7853 350.8772 450.4327 C 350.5718 449.3517 350.3753 452.2087 350.3359 453.0154 C 350.1332 457.1761 349.1705 461.2487 348.6679 465.381 C 348.4649 467.0509 349.6318 472.8268 351.7734 473.5718 C 353.4968 474.1713 354.8008 469.131 354.9665 468.1092 C 355.8396 462.7246 354.4021 457.3076 352.968 452.0626 C 352.3927 449.9583 349.5178 448.4181 348.0288 451.2057 C 345.8986 455.1935 346.1039 464.7928 346.5469 469.1559 C 346.7845 471.4945 348.607 473.9064 351.8121 472.1577 C 353.3361 471.3261 354.3281 465.604 354.5605 464.0922 C 355.066 460.8024 355.5965 455.464 353.5434 452.4625 C 352.9915 451.6555 352.2391 453.9719 351.9173 455.9951 C 351.1054 461.1002 350.8562 466.221 350.7743 471.3611 "
   id="path1002" /><path
   style="font-size:12;fill:none;fill-rule:evenodd;stroke:#000000;stroke-width:0.540929;"
   d="M 350.9114 449.4197 C 350.9114 451.1761 349.4239 452.6862 349.351 454.5755 C 349.2567 457.0174 348.6021 459.6626 348.3289 462.1237 C 348.0172 464.9308 347.5989 469.6954 349.1208 472.2544 "
   id="path1003" /><path
   style="font-size:12;fill:none;fill-rule:evenodd;stroke:#000000;stroke-width:0.540929;"
   d="M 350.9114 450.4251 C 350.9114 456.8344 346.806 461.7765 348.5168 468.6483 C 348.7456 469.567 349.2153 470.3139 349.827 471.1021 "
   id="path1004" /><path
   style="font-size:12;fill:none;fill-rule:evenodd;stroke:#000000;stroke-width:0.540929;"
   d="M 349.1238 448.4142 C 345.6721 448.4142 345.4289 455.0307 345.4946 456.7117 C 345.5643 458.4966 345.6161 460.282 345.6686 462.0673 "
   id="path1005" /><path
   style="font-size:12;fill:none;fill-rule:evenodd;stroke:#000000;stroke-width:0.540929;"
   d="M 348.945 448.8451 C 347.086 449.5919 347.6127 454.2593 347.6617 455.5884 "
   id="path1006" /><path
   style="font-size:12;fill:none;fill-rule:evenodd;stroke:#000000;stroke-width:0.540929;"
   d="M 355.2016 449.1323 C 353.3711 449.1323 353.3438 451.6367 353.241 452.6292 "
   id="path1007" /><path
   style="font-size:12;fill:none;fill-rule:evenodd;stroke:#000000;stroke-width:0.540929;"
   d="M 355.2016 449.7069 C 353.9693 451.1923 353.7809 452.7327 353.9904 454.4868 "
   id="path1008" /><path
   style="font-size:12;fill:none;fill-rule:evenodd;stroke:#000000;stroke-width:0.540929;"
   d="M 345.5486 452.5797 C 344.9822 453.4899 344.9511 454.4389 344.3673 455.3536 C 343.1157 457.3148 342.8168 463.2418 343.5171 465.4188 C 344.0472 467.0668 344.3592 468.7946 345.6614 470.1543 C 345.8549 470.3563 345.9665 470.6686 346.0729 470.8972 "
   id="path1009" /><path
   style="font-size:12;fill:none;fill-rule:evenodd;stroke:#000000;stroke-width:0.540929;"
   d="M 348.0512 465.6508 C 348.0512 466.8222 348.9706 468.4902 349.1615 469.7997 C 349.37 471.2309 353.003 474.6209 353.6473 471.4914 C 353.8493 470.5099 354.1148 469.5354 354.3527 468.5593 "
   id="path1010" /><path
   style="font-size:12;fill:none;fill-rule:evenodd;stroke:#000000;stroke-width:0.540929;"
   d="M 347.3362 469.96 C 348.5176 469.96 351.8218 473.7056 352.606 470.2198 C 352.712 469.7486 352.8506 469.2647 352.9807 468.8001 "
   id="path1011" /><path
   style="font-size:12;fill:none;fill-rule:evenodd;stroke:#000000;stroke-width:0.540929;"
   d="M 357.5255 452.8669 C 355.1289 450.9409 353.4606 446.6901 350.03 450.8254 C 349.6667 451.2633 349.3991 451.7532 349.1302 452.232 "
   id="path1012" /><path
   sodipodi:type="arc"
   style="font-size:12;fill:#76625a;fill-rule:evenodd;stroke:#2e2015;stroke-width:1.5;"
   id="path992"
   d="M 367.3267 359.0331 A 6.51709 25.32776 0 1 0 354.2925 359.0331 A 6.51709 25.32776 0 1 0  367.3267 359.0331 z"
   sodipodi:cx="360.80957"
   sodipodi:cy="359.033081"
   sodipodi:rx="6.51708984"
   sodipodi:ry="25.3277588"
   transform="matrix(0.603448,0,0,0.484888,140.3321,286.8919)" /><path
   sodipodi:type="arc"
   style="fill-rule:evenodd;stroke:#000000;fill:#383225;fill-opacity:1;stroke-opacity:1;stroke-width:0.8327;stroke-linejoin:miter;stroke-linecap:butt;stroke-dasharray:none;"
   id="path1044"
   d="M 322.2995 391.4705 A 3.850998 15.10779 0 1 0 314.5975 391.4705 A 3.850998 15.10779 0 1 0  322.2995 391.4705 z"
   sodipodi:cx="318.448486"
   sodipodi:cy="391.470459"
   sodipodi:rx="3.85099792"
   sodipodi:ry="15.1077881"
   transform="matrix(0.417772,0,0,0.394566,225.3806,306.9527)" /></g><g
   id="g1062"
   transform="matrix(4.040761,0,0,4.44958,-1206.892,-1774.545)"><rect
   style="font-size:12;fill:#808080;fill-rule:evenodd;"
   id="rect1063"
   width="14.4795732"
   height="16.6621151"
   x="345.727325"
   y="452.723267" /><path
   sodipodi:type="arc"
   style="font-size:12;fill:#76625a;fill-rule:evenodd;stroke:#2e2015;stroke-width:1.5;"
   id="path1064"
   d="M 367.3267 359.0331 A 6.51709 25.32776 0 1 0 354.2925 359.0331 A 6.51709 25.32776 0 1 0  367.3267 359.0331 z"
   sodipodi:cx="360.80957"
   sodipodi:cy="359.033081"
   sodipodi:rx="6.51708984"
   sodipodi:ry="25.3277588"
   transform="matrix(0.603448,0,0,0.484888,127.4614,286.7483)" /><path
   style="font-size:12;fill:none;fill-rule:evenodd;stroke:#000000;stroke-width:0.584198;"
   d="M 349.1883 450.7943 C 347.1517 450.131 345.9626 448.4423 345.2621 451.3672 C 344.8808 452.9598 344.9553 454.6601 344.7195 456.2696 C 344.1051 460.4608 343.1486 466.7679 346.6982 470.4111 C 347.8641 471.6078 347.796 469.6033 347.8815 468.9936 C 348.4637 464.8383 349.9074 460.964 350.1082 456.7123 C 350.1794 455.207 350.9179 450.8057 348.9102 449.7195 C 348.0738 449.2669 346.8552 451.8393 346.7624 452.7658 C 346.45 455.8912 346.5705 458.9803 346.0732 462.1041 C 345.5707 465.2601 345.6625 468.5909 348.3755 471.3749 C 348.6015 471.6067 349.2437 469.5221 349.3016 469.3628 C 350.969 464.7701 353.0555 455.5025 350.6145 451.168 C 348.4653 447.3519 347.1602 452.8245 346.7234 454.0371 C 344.8526 459.2294 344.3084 466.8723 348.4168 471.7018 C 350.0753 473.6514 351.5847 468.2074 351.6898 467.9034 C 353.1336 463.7277 354.0858 454.528 351.2682 450.5507 C 350.8919 450.0194 349.598 451.609 349.2249 452.1634 C 344.9905 458.4564 345.9633 464.3534 349.4121 470.6928 C 350.418 472.542 352.594 469.7356 352.849 469.2146 C 355.6201 463.5557 355.5702 460.066 354.0363 454.3219 C 353.7702 453.3252 352.7372 448.9226 351.0106 448.6971 C 350.0331 448.5694 349.1778 452.4538 349.0759 452.9459 C 347.9416 458.4294 347.0489 464.9597 347.7001 470.453 C 348.1768 474.475 351.5733 473.9395 353.2302 470.8618 C 355.5449 466.5622 354.3266 455.9402 352.5497 451.3699 C 352.2177 450.5157 350.8994 447.7465 349.265 449.2399 C 347.0899 451.2276 346.9261 458.3677 346.691 460.8995 C 346.4539 463.4508 345.4283 470.5062 347.4555 472.5337 C 349.0864 474.1648 350.6569 472.0834 350.9026 471.0973 C 352.2355 465.7465 355.1429 455.1733 351.1769 450.2057 C 350.3377 449.1547 348.7061 448.1932 346.9668 449.1805 C 343.9044 450.9188 345.1191 458.0446 344.6766 460.6899 C 344.268 463.1326 343.6061 470.3989 346.0524 472.3521 C 348.0866 473.976 350.1216 471.1035 350.5157 470.1881 C 352.5781 465.3982 352.6766 459.0126 352.3993 454.0107 C 352.2784 451.8289 350.512 446.4951 345.7419 449.5472 C 343.8286 450.7714 343.4942 456.7118 343.4445 458.5056 C 343.3411 462.2501 343.6011 469.0332 347.9387 471.8198 C 349.7297 472.9703 352.3056 473.3125 353.1166 471.4453 C 354.8768 467.3923 354.3675 462.2389 355.1871 457.9699 C 355.7343 455.1197 356.1157 451.2184 352.6793 448.9724 C 351.6693 448.3123 350.9927 451.4495 350.9352 451.8811 C 350.161 457.7005 348.5847 463.0082 350.4674 468.8312 C 350.9582 470.3492 351.4943 472.3849 354.0089 472.9837 C 354.3184 473.0574 354.629 471.6557 354.6301 471.6507 C 355.6478 467.4029 357.1336 463.5489 357.5808 459.2016 C 357.8594 456.4931 358.3953 451.2955 354.7918 449.4496 C 353.3109 448.691 352.2134 453.6865 352.2015 453.7284 C 350.6925 459.0527 348.4043 469.131 355.8854 472.8909 C 356.2405 473.0693 356.4156 471.7042 356.5466 471.2033 C 357.2744 468.4193 357.7256 465.5129 358.1803 462.7019 C 358.6703 459.6719 359.8664 452.5803 356.1045 450.3339 C 354.7548 449.5279 352.9062 454.0681 352.7568 454.511 C 351.3565 458.661 350.6801 465.6013 351.4095 469.8673 C 351.6096 471.0374 354.1726 475.2881 356.5345 472.8685 C 358.9242 470.4206 358.7546 461.8369 358.6322 458.9691 C 358.5324 456.6303 358.6313 451.3153 355.754 449.7038 C 353.1736 448.2586 351.9396 453.8968 351.8169 454.4078 C 350.5108 459.8458 348.4605 468.3739 355.2692 472.6393 C 357.4609 474.0123 357.8811 468.5788 357.9351 468.2658 C 358.7655 463.4523 360.757 454.2893 357.6492 449.8305 C 355.3279 446.5001 354.1865 453.8755 354.0866 454.4794 C 353.196 459.8682 353.1719 468.0742 357.6284 472.8253 C 358.7267 473.9962 358.0744 471.1003 358.0577 470.7456 C 357.9185 467.7796 359.2564 464.3715 359.459 461.2827 C 359.6569 458.2655 359.7411 453.6047 356.9832 451.0522 C 356.8841 450.9605 356.6842 451.1036 356.3238 451.7749 C 354.6622 454.8699 354.78 461.0433 354.4827 464.5312 C 354.2569 467.1798 353.91 471.4433 356.361 473.6649 C 357.6771 474.8578 358.3093 470.0052 358.3684 469.5705 C 359.244 463.1317 358.0739 457.8451 356.0759 451.5513 C 355.8159 450.7325 355.5105 448.7636 353.9081 448.8308 C 352.5278 448.8887 351.5598 453.6969 351.4289 454.5204 C 350.6148 459.6395 350.9104 465.0242 350.9044 470.1735 C 350.9036 470.8534 351.975 474.4405 353.6469 473.4284 C 356.8823 471.4693 358.1635 463.8071 358.4254 461.2652 C 358.7663 457.9591 359.2375 454.4749 358.2824 451.1953 C 358.2532 451.095 358.0837 451.6142 358.0675 451.6613 C 356.574 456.0253 355.2189 460.2552 356.265 464.7246 C 356.3525 465.0979 356.4784 465.8094 356.5439 466.1641 "
   id="path1065" /><path
   style="font-size:12;fill:none;fill-rule:evenodd;stroke:#000000;stroke-width:0.540929;"
   d="M 347.8725 448.845 C 346.4318 449.4239 345.5712 453.9543 345.226 455.2373 C 344.2217 458.971 344.6607 463.0569 344.656 466.8491 C 344.6542 468.3846 345.2502 471.6717 347.0871 472.3816 C 349.9006 473.4691 349.782 471.4863 350.1886 469.6241 C 351.3375 464.361 353.3428 454.6663 350.1304 449.7962 C 350.0329 449.6482 349.7384 450.2939 349.7272 450.3176 C 348.602 452.6843 347.9531 457.5088 347.6348 460.0583 C 347.2431 463.1947 346.6641 467.2423 349.213 469.9501 C 349.4578 470.2102 349.8593 469.4948 349.9631 469.1796 C 351.1785 465.4874 350.932 459.9872 351.1136 456.1291 C 351.225 453.7622 351.2328 454.1449 351.1299 452.7322 C 351.1044 452.3804 350.7083 453.6622 350.7054 453.6756 C 350.0784 456.5186 349.9797 459.404 349.8907 462.2833 C 349.9029 461.8871 349.8553 465.5187 349.8582 465.7065 C 349.8609 465.8759 349.9166 464.9822 349.9195 464.9256 C 350.0514 462.411 350.5436 459.3412 349.598 456.9328 C 349.5795 456.8857 349.4623 456.9276 349.4171 456.961 C 347.9935 458.0101 348.7971 464.5594 349.235 465.5665 C 349.8573 466.9978 350.7272 463.4534 350.8736 462.79 C 351.313 460.7986 351.4855 458.7018 351.7216 456.6985 C 351.8634 455.4954 351.5964 456.0453 351.3556 456.7724 C 350.8533 458.2889 349.656 463.6361 350.7715 464.7575 C 351.8642 465.8559 352.8729 461.8135 352.8918 461.7239 C 353.3098 459.7464 353.7857 455.4426 352.5098 453.681 C 352.0962 453.11 351.2455 454.0995 351.1112 454.3685 C 349.3215 457.9552 350.1918 466.7265 353.194 469.772 C 355.2328 471.8402 356.8601 465.8985 357.0003 465.3173 C 357.9687 461.3047 358.5568 452.6434 356.6007 448.9237 C 355.4448 446.7258 352.8642 450.1431 352.4634 451.0383 C 350.6731 455.037 350.0267 465.2887 351.7425 469.4171 C 352.6611 471.6274 355.0216 472.8623 356.2076 470.0296 C 358.0061 465.7342 359.1897 455.8917 357.3652 451.4954 C 355.9344 448.0478 355.4611 454.1927 355.4533 454.2924 C 355.0774 459.1212 354.4336 465.8694 355.4165 470.4975 C 355.6775 471.7266 356.7272 469.6198 356.7891 469.4265 C 358.3376 464.5891 357.7301 458.9473 356.7118 454.0998 C 356.2904 452.0937 354.5634 455.4464 354.4581 455.6563 C 352.6661 459.2301 350.9589 464.5982 352.0565 468.4045 C 352.3758 469.5118 352.8632 466.8208 353.0327 465.5966 C 353.7187 460.6434 353.0935 455.6635 351.3376 450.8988 C 351.3082 450.819 351.1403 451.0706 350.8294 451.6883 C 349.8018 453.73 348.4475 459.0139 348.3453 461.0674 C 348.2627 462.7251 348.3461 467.1694 350.229 468.0747 C 350.3567 468.136 350.4861 466.9312 350.5307 466.3117 C 350.8508 461.8599 351.1709 457.1787 350.7385 452.7315 C 350.6903 452.2354 350.168 449.7172 349.3273 450.8302 C 347.3031 453.5101 347.4944 458.225 347.0005 461.3687 C 346.6473 463.6174 345.7868 470.47 348.2508 471.9107 C 350.0521 472.964 350.9359 467.6388 351.0645 467.1072 C 352.365 461.735 352.3892 455.7853 350.8772 450.4327 C 350.5718 449.3517 350.3753 452.2087 350.3359 453.0154 C 350.1332 457.1761 349.1705 461.2487 348.6679 465.381 C 348.4649 467.0509 349.6318 472.8268 351.7734 473.5718 C 353.4968 474.1713 354.8008 469.131 354.9665 468.1092 C 355.8396 462.7246 354.4021 457.3076 352.968 452.0626 C 352.3927 449.9583 349.5178 448.4181 348.0288 451.2057 C 345.8986 455.1935 346.1039 464.7928 346.5469 469.1559 C 346.7845 471.4945 348.607 473.9064 351.8121 472.1577 C 353.3361 471.3261 354.3281 465.604 354.5605 464.0922 C 355.066 460.8024 355.5965 455.464 353.5434 452.4625 C 352.9915 451.6555 352.2391 453.9719 351.9173 455.9951 C 351.1054 461.1002 350.8562 466.221 350.7743 471.3611 "
   id="path1066" /><path
   style="font-size:12;fill:none;fill-rule:evenodd;stroke:#000000;stroke-width:0.540929;"
   d="M 350.9114 449.4197 C 350.9114 451.1761 349.4239 452.6862 349.351 454.5755 C 349.2567 457.0174 348.6021 459.6626 348.3289 462.1237 C 348.0172 464.9308 347.5989 469.6954 349.1208 472.2544 "
   id="path1067" /><path
   style="font-size:12;fill:none;fill-rule:evenodd;stroke:#000000;stroke-width:0.540929;"
   d="M 350.9114 450.4251 C 350.9114 456.8344 346.806 461.7765 348.5168 468.6483 C 348.7456 469.567 349.2153 470.3139 349.827 471.1021 "
   id="path1068" /><path
   style="font-size:12;fill:none;fill-rule:evenodd;stroke:#000000;stroke-width:0.540929;"
   d="M 349.1238 448.4142 C 345.6721 448.4142 345.4289 455.0307 345.4946 456.7117 C 345.5643 458.4966 345.6161 460.282 345.6686 462.0673 "
   id="path1069" /><path
   style="font-size:12;fill:none;fill-rule:evenodd;stroke:#000000;stroke-width:0.540929;"
   d="M 348.945 448.8451 C 347.086 449.5919 347.6127 454.2593 347.6617 455.5884 "
   id="path1070" /><path
   style="font-size:12;fill:none;fill-rule:evenodd;stroke:#000000;stroke-width:0.540929;"
   d="M 355.2016 449.1323 C 353.3711 449.1323 353.3438 451.6367 353.241 452.6292 "
   id="path1071" /><path
   style="font-size:12;fill:none;fill-rule:evenodd;stroke:#000000;stroke-width:0.540929;"
   d="M 355.2016 449.7069 C 353.9693 451.1923 353.7809 452.7327 353.9904 454.4868 "
   id="path1072" /><path
   style="font-size:12;fill:none;fill-rule:evenodd;stroke:#000000;stroke-width:0.540929;"
   d="M 345.5486 452.5797 C 344.9822 453.4899 344.9511 454.4389 344.3673 455.3536 C 343.1157 457.3148 342.8168 463.2418 343.5171 465.4188 C 344.0472 467.0668 344.3592 468.7946 345.6614 470.1543 C 345.8549 470.3563 345.9665 470.6686 346.0729 470.8972 "
   id="path1073" /><path
   style="font-size:12;fill:none;fill-rule:evenodd;stroke:#000000;stroke-width:0.540929;"
   d="M 348.0512 465.6508 C 348.0512 466.8222 348.9706 468.4902 349.1615 469.7997 C 349.37 471.2309 353.003 474.6209 353.6473 471.4914 C 353.8493 470.5099 354.1148 469.5354 354.3527 468.5593 "
   id="path1074" /><path
   style="font-size:12;fill:none;fill-rule:evenodd;stroke:#000000;stroke-width:0.540929;"
   d="M 347.3362 469.96 C 348.5176 469.96 351.8218 473.7056 352.606 470.2198 C 352.712 469.7486 352.8506 469.2647 352.9807 468.8001 "
   id="path1075" /><path
   style="font-size:12;fill:none;fill-rule:evenodd;stroke:#000000;stroke-width:0.540929;"
   d="M 357.5255 452.8669 C 355.1289 450.9409 353.4606 446.6901 350.03 450.8254 C 349.6667 451.2633 349.3991 451.7532 349.1302 452.232 "
   id="path1076" /><path
   sodipodi:type="arc"
   style="font-size:12;fill:#76625a;fill-rule:evenodd;stroke:#2e2015;stroke-width:1.5;"
   id="path1077"
   d="M 367.3267 359.0331 A 6.51709 25.32776 0 1 0 354.2925 359.0331 A 6.51709 25.32776 0 1 0  367.3267 359.0331 z"
   sodipodi:cx="360.80957"
   sodipodi:cy="359.033081"
   sodipodi:rx="6.51708984"
   sodipodi:ry="25.3277588"
   transform="matrix(0.603448,0,0,0.484888,140.3321,286.8919)" /><path
   sodipodi:type="arc"
   style="fill-rule:evenodd;stroke:#000000;fill:#383225;fill-opacity:1;stroke-opacity:1;stroke-width:0.8327;stroke-linejoin:miter;stroke-linecap:butt;stroke-dasharray:none;"
   id="path1078"
   d="M 322.2995 391.4705 A 3.850998 15.10779 0 1 0 314.5975 391.4705 A 3.850998 15.10779 0 1 0  322.2995 391.4705 z"
   sodipodi:cx="318.448486"
   sodipodi:cy="391.470459"
   sodipodi:rx="3.85099792"
   sodipodi:ry="15.1077881"
   transform="matrix(0.417772,0,0,0.394566,225.3806,306.9527)" /></g><g
   id="g1079"
   transform="matrix(4.040761,0,0,4.44958,-1066.992,-1791.89)"><rect
   style="font-size:12;fill:#808080;fill-rule:evenodd;"
   id="rect1080"
   width="14.4795732"
   height="16.6621151"
   x="345.727325"
   y="452.723267" /><path
   sodipodi:type="arc"
   style="font-size:12;fill:#76625a;fill-rule:evenodd;stroke:#2e2015;stroke-width:1.5;"
   id="path1081"
   d="M 367.3267 359.0331 A 6.51709 25.32776 0 1 0 354.2925 359.0331 A 6.51709 25.32776 0 1 0  367.3267 359.0331 z"
   sodipodi:cx="360.80957"
   sodipodi:cy="359.033081"
   sodipodi:rx="6.51708984"
   sodipodi:ry="25.3277588"
   transform="matrix(0.603448,0,0,0.484888,127.4614,286.7483)" /><path
   style="font-size:12;fill:none;fill-rule:evenodd;stroke:#000000;stroke-width:0.584198;"
   d="M 349.1883 450.7943 C 347.1517 450.131 345.9626 448.4423 345.2621 451.3672 C 344.8808 452.9598 344.9553 454.6601 344.7195 456.2696 C 344.1051 460.4608 343.1486 466.7679 346.6982 470.4111 C 347.8641 471.6078 347.796 469.6033 347.8815 468.9936 C 348.4637 464.8383 349.9074 460.964 350.1082 456.7123 C 350.1794 455.207 350.9179 450.8057 348.9102 449.7195 C 348.0738 449.2669 346.8552 451.8393 346.7624 452.7658 C 346.45 455.8912 346.5705 458.9803 346.0732 462.1041 C 345.5707 465.2601 345.6625 468.5909 348.3755 471.3749 C 348.6015 471.6067 349.2437 469.5221 349.3016 469.3628 C 350.969 464.7701 353.0555 455.5025 350.6145 451.168 C 348.4653 447.3519 347.1602 452.8245 346.7234 454.0371 C 344.8526 459.2294 344.3084 466.8723 348.4168 471.7018 C 350.0753 473.6514 351.5847 468.2074 351.6898 467.9034 C 353.1336 463.7277 354.0858 454.528 351.2682 450.5507 C 350.8919 450.0194 349.598 451.609 349.2249 452.1634 C 344.9905 458.4564 345.9633 464.3534 349.4121 470.6928 C 350.418 472.542 352.594 469.7356 352.849 469.2146 C 355.6201 463.5557 355.5702 460.066 354.0363 454.3219 C 353.7702 453.3252 352.7372 448.9226 351.0106 448.6971 C 350.0331 448.5694 349.1778 452.4538 349.0759 452.9459 C 347.9416 458.4294 347.0489 464.9597 347.7001 470.453 C 348.1768 474.475 351.5733 473.9395 353.2302 470.8618 C 355.5449 466.5622 354.3266 455.9402 352.5497 451.3699 C 352.2177 450.5157 350.8994 447.7465 349.265 449.2399 C 347.0899 451.2276 346.9261 458.3677 346.691 460.8995 C 346.4539 463.4508 345.4283 470.5062 347.4555 472.5337 C 349.0864 474.1648 350.6569 472.0834 350.9026 471.0973 C 352.2355 465.7465 355.1429 455.1733 351.1769 450.2057 C 350.3377 449.1547 348.7061 448.1932 346.9668 449.1805 C 343.9044 450.9188 345.1191 458.0446 344.6766 460.6899 C 344.268 463.1326 343.6061 470.3989 346.0524 472.3521 C 348.0866 473.976 350.1216 471.1035 350.5157 470.1881 C 352.5781 465.3982 352.6766 459.0126 352.3993 454.0107 C 352.2784 451.8289 350.512 446.4951 345.7419 449.5472 C 343.8286 450.7714 343.4942 456.7118 343.4445 458.5056 C 343.3411 462.2501 343.6011 469.0332 347.9387 471.8198 C 349.7297 472.9703 352.3056 473.3125 353.1166 471.4453 C 354.8768 467.3923 354.3675 462.2389 355.1871 457.9699 C 355.7343 455.1197 356.1157 451.2184 352.6793 448.9724 C 351.6693 448.3123 350.9927 451.4495 350.9352 451.8811 C 350.161 457.7005 348.5847 463.0082 350.4674 468.8312 C 350.9582 470.3492 351.4943 472.3849 354.0089 472.9837 C 354.3184 473.0574 354.629 471.6557 354.6301 471.6507 C 355.6478 467.4029 357.1336 463.5489 357.5808 459.2016 C 357.8594 456.4931 358.3953 451.2955 354.7918 449.4496 C 353.3109 448.691 352.2134 453.6865 352.2015 453.7284 C 350.6925 459.0527 348.4043 469.131 355.8854 472.8909 C 356.2405 473.0693 356.4156 471.7042 356.5466 471.2033 C 357.2744 468.4193 357.7256 465.5129 358.1803 462.7019 C 358.6703 459.6719 359.8664 452.5803 356.1045 450.3339 C 354.7548 449.5279 352.9062 454.0681 352.7568 454.511 C 351.3565 458.661 350.6801 465.6013 351.4095 469.8673 C 351.6096 471.0374 354.1726 475.2881 356.5345 472.8685 C 358.9242 470.4206 358.7546 461.8369 358.6322 458.9691 C 358.5324 456.6303 358.6313 451.3153 355.754 449.7038 C 353.1736 448.2586 351.9396 453.8968 351.8169 454.4078 C 350.5108 459.8458 348.4605 468.3739 355.2692 472.6393 C 357.4609 474.0123 357.8811 468.5788 357.9351 468.2658 C 358.7655 463.4523 360.757 454.2893 357.6492 449.8305 C 355.3279 446.5001 354.1865 453.8755 354.0866 454.4794 C 353.196 459.8682 353.1719 468.0742 357.6284 472.8253 C 358.7267 473.9962 358.0744 471.1003 358.0577 470.7456 C 357.9185 467.7796 359.2564 464.3715 359.459 461.2827 C 359.6569 458.2655 359.7411 453.6047 356.9832 451.0522 C 356.8841 450.9605 356.6842 451.1036 356.3238 451.7749 C 354.6622 454.8699 354.78 461.0433 354.4827 464.5312 C 354.2569 467.1798 353.91 471.4433 356.361 473.6649 C 357.6771 474.8578 358.3093 470.0052 358.3684 469.5705 C 359.244 463.1317 358.0739 457.8451 356.0759 451.5513 C 355.8159 450.7325 355.5105 448.7636 353.9081 448.8308 C 352.5278 448.8887 351.5598 453.6969 351.4289 454.5204 C 350.6148 459.6395 350.9104 465.0242 350.9044 470.1735 C 350.9036 470.8534 351.975 474.4405 353.6469 473.4284 C 356.8823 471.4693 358.1635 463.8071 358.4254 461.2652 C 358.7663 457.9591 359.2375 454.4749 358.2824 451.1953 C 358.2532 451.095 358.0837 451.6142 358.0675 451.6613 C 356.574 456.0253 355.2189 460.2552 356.265 464.7246 C 356.3525 465.0979 356.4784 465.8094 356.5439 466.1641 "
   id="path1082" /><path
   style="font-size:12;fill:none;fill-rule:evenodd;stroke:#000000;stroke-width:0.540929;"
   d="M 347.8725 448.845 C 346.4318 449.4239 345.5712 453.9543 345.226 455.2373 C 344.2217 458.971 344.6607 463.0569 344.656 466.8491 C 344.6542 468.3846 345.2502 471.6717 347.0871 472.3816 C 349.9006 473.4691 349.782 471.4863 350.1886 469.6241 C 351.3375 464.361 353.3428 454.6663 350.1304 449.7962 C 350.0329 449.6482 349.7384 450.2939 349.7272 450.3176 C 348.602 452.6843 347.9531 457.5088 347.6348 460.0583 C 347.2431 463.1947 346.6641 467.2423 349.213 469.9501 C 349.4578 470.2102 349.8593 469.4948 349.9631 469.1796 C 351.1785 465.4874 350.932 459.9872 351.1136 456.1291 C 351.225 453.7622 351.2328 454.1449 351.1299 452.7322 C 351.1044 452.3804 350.7083 453.6622 350.7054 453.6756 C 350.0784 456.5186 349.9797 459.404 349.8907 462.2833 C 349.9029 461.8871 349.8553 465.5187 349.8582 465.7065 C 349.8609 465.8759 349.9166 464.9822 349.9195 464.9256 C 350.0514 462.411 350.5436 459.3412 349.598 456.9328 C 349.5795 456.8857 349.4623 456.9276 349.4171 456.961 C 347.9935 458.0101 348.7971 464.5594 349.235 465.5665 C 349.8573 466.9978 350.7272 463.4534 350.8736 462.79 C 351.313 460.7986 351.4855 458.7018 351.7216 456.6985 C 351.8634 455.4954 351.5964 456.0453 351.3556 456.7724 C 350.8533 458.2889 349.656 463.6361 350.7715 464.7575 C 351.8642 465.8559 352.8729 461.8135 352.8918 461.7239 C 353.3098 459.7464 353.7857 455.4426 352.5098 453.681 C 352.0962 453.11 351.2455 454.0995 351.1112 454.3685 C 349.3215 457.9552 350.1918 466.7265 353.194 469.772 C 355.2328 471.8402 356.8601 465.8985 357.0003 465.3173 C 357.9687 461.3047 358.5568 452.6434 356.6007 448.9237 C 355.4448 446.7258 352.8642 450.1431 352.4634 451.0383 C 350.6731 455.037 350.0267 465.2887 351.7425 469.4171 C 352.6611 471.6274 355.0216 472.8623 356.2076 470.0296 C 358.0061 465.7342 359.1897 455.8917 357.3652 451.4954 C 355.9344 448.0478 355.4611 454.1927 355.4533 454.2924 C 355.0774 459.1212 354.4336 465.8694 355.4165 470.4975 C 355.6775 471.7266 356.7272 469.6198 356.7891 469.4265 C 358.3376 464.5891 357.7301 458.9473 356.7118 454.0998 C 356.2904 452.0937 354.5634 455.4464 354.4581 455.6563 C 352.6661 459.2301 350.9589 464.5982 352.0565 468.4045 C 352.3758 469.5118 352.8632 466.8208 353.0327 465.5966 C 353.7187 460.6434 353.0935 455.6635 351.3376 450.8988 C 351.3082 450.819 351.1403 451.0706 350.8294 451.6883 C 349.8018 453.73 348.4475 459.0139 348.3453 461.0674 C 348.2627 462.7251 348.3461 467.1694 350.229 468.0747 C 350.3567 468.136 350.4861 466.9312 350.5307 466.3117 C 350.8508 461.8599 351.1709 457.1787 350.7385 452.7315 C 350.6903 452.2354 350.168 449.7172 349.3273 450.8302 C 347.3031 453.5101 347.4944 458.225 347.0005 461.3687 C 346.6473 463.6174 345.7868 470.47 348.2508 471.9107 C 350.0521 472.964 350.9359 467.6388 351.0645 467.1072 C 352.365 461.735 352.3892 455.7853 350.8772 450.4327 C 350.5718 449.3517 350.3753 452.2087 350.3359 453.0154 C 350.1332 457.1761 349.1705 461.2487 348.6679 465.381 C 348.4649 467.0509 349.6318 472.8268 351.7734 473.5718 C 353.4968 474.1713 354.8008 469.131 354.9665 468.1092 C 355.8396 462.7246 354.4021 457.3076 352.968 452.0626 C 352.3927 449.9583 349.5178 448.4181 348.0288 451.2057 C 345.8986 455.1935 346.1039 464.7928 346.5469 469.1559 C 346.7845 471.4945 348.607 473.9064 351.8121 472.1577 C 353.3361 471.3261 354.3281 465.604 354.5605 464.0922 C 355.066 460.8024 355.5965 455.464 353.5434 452.4625 C 352.9915 451.6555 352.2391 453.9719 351.9173 455.9951 C 351.1054 461.1002 350.8562 466.221 350.7743 471.3611 "
   id="path1083" /><path
   style="font-size:12;fill:none;fill-rule:evenodd;stroke:#000000;stroke-width:0.540929;"
   d="M 350.9114 449.4197 C 350.9114 451.1761 349.4239 452.6862 349.351 454.5755 C 349.2567 457.0174 348.6021 459.6626 348.3289 462.1237 C 348.0172 464.9308 347.5989 469.6954 349.1208 472.2544 "
   id="path1084" /><path
   style="font-size:12;fill:none;fill-rule:evenodd;stroke:#000000;stroke-width:0.540929;"
   d="M 350.9114 450.4251 C 350.9114 456.8344 346.806 461.7765 348.5168 468.6483 C 348.7456 469.567 349.2153 470.3139 349.827 471.1021 "
   id="path1085" /><path
   style="font-size:12;fill:none;fill-rule:evenodd;stroke:#000000;stroke-width:0.540929;"
   d="M 349.1238 448.4142 C 345.6721 448.4142 345.4289 455.0307 345.4946 456.7117 C 345.5643 458.4966 345.6161 460.282 345.6686 462.0673 "
   id="path1086" /><path
   style="font-size:12;fill:none;fill-rule:evenodd;stroke:#000000;stroke-width:0.540929;"
   d="M 348.945 448.8451 C 347.086 449.5919 347.6127 454.2593 347.6617 455.5884 "
   id="path1087" /><path
   style="font-size:12;fill:none;fill-rule:evenodd;stroke:#000000;stroke-width:0.540929;"
   d="M 355.2016 449.1323 C 353.3711 449.1323 353.3438 451.6367 353.241 452.6292 "
   id="path1088" /><path
   style="font-size:12;fill:none;fill-rule:evenodd;stroke:#000000;stroke-width:0.540929;"
   d="M 355.2016 449.7069 C 353.9693 451.1923 353.7809 452.7327 353.9904 454.4868 "
   id="path1089" /><path
   style="font-size:12;fill:none;fill-rule:evenodd;stroke:#000000;stroke-width:0.540929;"
   d="M 345.5486 452.5797 C 344.9822 453.4899 344.9511 454.4389 344.3673 455.3536 C 343.1157 457.3148 342.8168 463.2418 343.5171 465.4188 C 344.0472 467.0668 344.3592 468.7946 345.6614 470.1543 C 345.8549 470.3563 345.9665 470.6686 346.0729 470.8972 "
   id="path1090" /><path
   style="font-size:12;fill:none;fill-rule:evenodd;stroke:#000000;stroke-width:0.540929;"
   d="M 348.0512 465.6508 C 348.0512 466.8222 348.9706 468.4902 349.1615 469.7997 C 349.37 471.2309 353.003 474.6209 353.6473 471.4914 C 353.8493 470.5099 354.1148 469.5354 354.3527 468.5593 "
   id="path1091" /><path
   style="font-size:12;fill:none;fill-rule:evenodd;stroke:#000000;stroke-width:0.540929;"
   d="M 347.3362 469.96 C 348.5176 469.96 351.8218 473.7056 352.606 470.2198 C 352.712 469.7486 352.8506 469.2647 352.9807 468.8001 "
   id="path1092" /><path
   style="font-size:12;fill:none;fill-rule:evenodd;stroke:#000000;stroke-width:0.540929;"
   d="M 357.5255 452.8669 C 355.1289 450.9409 353.4606 446.6901 350.03 450.8254 C 349.6667 451.2633 349.3991 451.7532 349.1302 452.232 "
   id="path1093" /><path
   sodipodi:type="arc"
   style="font-size:12;fill:#76625a;fill-rule:evenodd;stroke:#2e2015;stroke-width:1.5;"
   id="path1094"
   d="M 367.3267 359.0331 A 6.51709 25.32776 0 1 0 354.2925 359.0331 A 6.51709 25.32776 0 1 0  367.3267 359.0331 z"
   sodipodi:cx="360.80957"
   sodipodi:cy="359.033081"
   sodipodi:rx="6.51708984"
   sodipodi:ry="25.3277588"
   transform="matrix(0.603448,0,0,0.484888,140.3321,286.8919)" /><path
   sodipodi:type="arc"
   style="fill-rule:evenodd;stroke:#000000;fill:#383225;fill-opacity:1;stroke-opacity:1;stroke-width:0.8327;stroke-linejoin:miter;stroke-linecap:butt;stroke-dasharray:none;"
   id="path1095"
   d="M 322.2995 391.4705 A 3.850998 15.10779 0 1 0 314.5975 391.4705 A 3.850998 15.10779 0 1 0  322.2995 391.4705 z"
   sodipodi:cx="318.448486"
   sodipodi:cy="391.470459"
   sodipodi:rx="3.85099792"
   sodipodi:ry="15.1077881"
   transform="matrix(0.417772,0,0,0.394566,225.3806,306.9527)" /></g><g
   id="g1096"
   transform="matrix(4.040761,0,0,4.44958,-1129.087,-1758.852)"><rect
   style="font-size:12;fill:#808080;fill-rule:evenodd;"
   id="rect1097"
   width="14.4795732"
   height="16.6621151"
   x="345.727325"
   y="452.723267" /><path
   sodipodi:type="arc"
   style="font-size:12;fill:#76625a;fill-rule:evenodd;stroke:#2e2015;stroke-width:1.5;"
   id="path1098"
   d="M 367.3267 359.0331 A 6.51709 25.32776 0 1 0 354.2925 359.0331 A 6.51709 25.32776 0 1 0  367.3267 359.0331 z"
   sodipodi:cx="360.80957"
   sodipodi:cy="359.033081"
   sodipodi:rx="6.51708984"
   sodipodi:ry="25.3277588"
   transform="matrix(0.603448,0,0,0.484888,127.4614,286.7483)" /><path
   style="font-size:12;fill:none;fill-rule:evenodd;stroke:#000000;stroke-width:0.584198;"
   d="M 349.1883 450.7943 C 347.1517 450.131 345.9626 448.4423 345.2621 451.3672 C 344.8808 452.9598 344.9553 454.6601 344.7195 456.2696 C 344.1051 460.4608 343.1486 466.7679 346.6982 470.4111 C 347.8641 471.6078 347.796 469.6033 347.8815 468.9936 C 348.4637 464.8383 349.9074 460.964 350.1082 456.7123 C 350.1794 455.207 350.9179 450.8057 348.9102 449.7195 C 348.0738 449.2669 346.8552 451.8393 346.7624 452.7658 C 346.45 455.8912 346.5705 458.9803 346.0732 462.1041 C 345.5707 465.2601 345.6625 468.5909 348.3755 471.3749 C 348.6015 471.6067 349.2437 469.5221 349.3016 469.3628 C 350.969 464.7701 353.0555 455.5025 350.6145 451.168 C 348.4653 447.3519 347.1602 452.8245 346.7234 454.0371 C 344.8526 459.2294 344.3084 466.8723 348.4168 471.7018 C 350.0753 473.6514 351.5847 468.2074 351.6898 467.9034 C 353.1336 463.7277 354.0858 454.528 351.2682 450.5507 C 350.8919 450.0194 349.598 451.609 349.2249 452.1634 C 344.9905 458.4564 345.9633 464.3534 349.4121 470.6928 C 350.418 472.542 352.594 469.7356 352.849 469.2146 C 355.6201 463.5557 355.5702 460.066 354.0363 454.3219 C 353.7702 453.3252 352.7372 448.9226 351.0106 448.6971 C 350.0331 448.5694 349.1778 452.4538 349.0759 452.9459 C 347.9416 458.4294 347.0489 464.9597 347.7001 470.453 C 348.1768 474.475 351.5733 473.9395 353.2302 470.8618 C 355.5449 466.5622 354.3266 455.9402 352.5497 451.3699 C 352.2177 450.5157 350.8994 447.7465 349.265 449.2399 C 347.0899 451.2276 346.9261 458.3677 346.691 460.8995 C 346.4539 463.4508 345.4283 470.5062 347.4555 472.5337 C 349.0864 474.1648 350.6569 472.0834 350.9026 471.0973 C 352.2355 465.7465 355.1429 455.1733 351.1769 450.2057 C 350.3377 449.1547 348.7061 448.1932 346.9668 449.1805 C 343.9044 450.9188 345.1191 458.0446 344.6766 460.6899 C 344.268 463.1326 343.6061 470.3989 346.0524 472.3521 C 348.0866 473.976 350.1216 471.1035 350.5157 470.1881 C 352.5781 465.3982 352.6766 459.0126 352.3993 454.0107 C 352.2784 451.8289 350.512 446.4951 345.7419 449.5472 C 343.8286 450.7714 343.4942 456.7118 343.4445 458.5056 C 343.3411 462.2501 343.6011 469.0332 347.9387 471.8198 C 349.7297 472.9703 352.3056 473.3125 353.1166 471.4453 C 354.8768 467.3923 354.3675 462.2389 355.1871 457.9699 C 355.7343 455.1197 356.1157 451.2184 352.6793 448.9724 C 351.6693 448.3123 350.9927 451.4495 350.9352 451.8811 C 350.161 457.7005 348.5847 463.0082 350.4674 468.8312 C 350.9582 470.3492 351.4943 472.3849 354.0089 472.9837 C 354.3184 473.0574 354.629 471.6557 354.6301 471.6507 C 355.6478 467.4029 357.1336 463.5489 357.5808 459.2016 C 357.8594 456.4931 358.3953 451.2955 354.7918 449.4496 C 353.3109 448.691 352.2134 453.6865 352.2015 453.7284 C 350.6925 459.0527 348.4043 469.131 355.8854 472.8909 C 356.2405 473.0693 356.4156 471.7042 356.5466 471.2033 C 357.2744 468.4193 357.7256 465.5129 358.1803 462.7019 C 358.6703 459.6719 359.8664 452.5803 356.1045 450.3339 C 354.7548 449.5279 352.9062 454.0681 352.7568 454.511 C 351.3565 458.661 350.6801 465.6013 351.4095 469.8673 C 351.6096 471.0374 354.1726 475.2881 356.5345 472.8685 C 358.9242 470.4206 358.7546 461.8369 358.6322 458.9691 C 358.5324 456.6303 358.6313 451.3153 355.754 449.7038 C 353.1736 448.2586 351.9396 453.8968 351.8169 454.4078 C 350.5108 459.8458 348.4605 468.3739 355.2692 472.6393 C 357.4609 474.0123 357.8811 468.5788 357.9351 468.2658 C 358.7655 463.4523 360.757 454.2893 357.6492 449.8305 C 355.3279 446.5001 354.1865 453.8755 354.0866 454.4794 C 353.196 459.8682 353.1719 468.0742 357.6284 472.8253 C 358.7267 473.9962 358.0744 471.1003 358.0577 470.7456 C 357.9185 467.7796 359.2564 464.3715 359.459 461.2827 C 359.6569 458.2655 359.7411 453.6047 356.9832 451.0522 C 356.8841 450.9605 356.6842 451.1036 356.3238 451.7749 C 354.6622 454.8699 354.78 461.0433 354.4827 464.5312 C 354.2569 467.1798 353.91 471.4433 356.361 473.6649 C 357.6771 474.8578 358.3093 470.0052 358.3684 469.5705 C 359.244 463.1317 358.0739 457.8451 356.0759 451.5513 C 355.8159 450.7325 355.5105 448.7636 353.9081 448.8308 C 352.5278 448.8887 351.5598 453.6969 351.4289 454.5204 C 350.6148 459.6395 350.9104 465.0242 350.9044 470.1735 C 350.9036 470.8534 351.975 474.4405 353.6469 473.4284 C 356.8823 471.4693 358.1635 463.8071 358.4254 461.2652 C 358.7663 457.9591 359.2375 454.4749 358.2824 451.1953 C 358.2532 451.095 358.0837 451.6142 358.0675 451.6613 C 356.574 456.0253 355.2189 460.2552 356.265 464.7246 C 356.3525 465.0979 356.4784 465.8094 356.5439 466.1641 "
   id="path1099" /><path
   style="font-size:12;fill:none;fill-rule:evenodd;stroke:#000000;stroke-width:0.540929;"
   d="M 347.8725 448.845 C 346.4318 449.4239 345.5712 453.9543 345.226 455.2373 C 344.2217 458.971 344.6607 463.0569 344.656 466.8491 C 344.6542 468.3846 345.2502 471.6717 347.0871 472.3816 C 349.9006 473.4691 349.782 471.4863 350.1886 469.6241 C 351.3375 464.361 353.3428 454.6663 350.1304 449.7962 C 350.0329 449.6482 349.7384 450.2939 349.7272 450.3176 C 348.602 452.6843 347.9531 457.5088 347.6348 460.0583 C 347.2431 463.1947 346.6641 467.2423 349.213 469.9501 C 349.4578 470.2102 349.8593 469.4948 349.9631 469.1796 C 351.1785 465.4874 350.932 459.9872 351.1136 456.1291 C 351.225 453.7622 351.2328 454.1449 351.1299 452.7322 C 351.1044 452.3804 350.7083 453.6622 350.7054 453.6756 C 350.0784 456.5186 349.9797 459.404 349.8907 462.2833 C 349.9029 461.8871 349.8553 465.5187 349.8582 465.7065 C 349.8609 465.8759 349.9166 464.9822 349.9195 464.9256 C 350.0514 462.411 350.5436 459.3412 349.598 456.9328 C 349.5795 456.8857 349.4623 456.9276 349.4171 456.961 C 347.9935 458.0101 348.7971 464.5594 349.235 465.5665 C 349.8573 466.9978 350.7272 463.4534 350.8736 462.79 C 351.313 460.7986 351.4855 458.7018 351.7216 456.6985 C 351.8634 455.4954 351.5964 456.0453 351.3556 456.7724 C 350.8533 458.2889 349.656 463.6361 350.7715 464.7575 C 351.8642 465.8559 352.8729 461.8135 352.8918 461.7239 C 353.3098 459.7464 353.7857 455.4426 352.5098 453.681 C 352.0962 453.11 351.2455 454.0995 351.1112 454.3685 C 349.3215 457.9552 350.1918 466.7265 353.194 469.772 C 355.2328 471.8402 356.8601 465.8985 357.0003 465.3173 C 357.9687 461.3047 358.5568 452.6434 356.6007 448.9237 C 355.4448 446.7258 352.8642 450.1431 352.4634 451.0383 C 350.6731 455.037 350.0267 465.2887 351.7425 469.4171 C 352.6611 471.6274 355.0216 472.8623 356.2076 470.0296 C 358.0061 465.7342 359.1897 455.8917 357.3652 451.4954 C 355.9344 448.0478 355.4611 454.1927 355.4533 454.2924 C 355.0774 459.1212 354.4336 465.8694 355.4165 470.4975 C 355.6775 471.7266 356.7272 469.6198 356.7891 469.4265 C 358.3376 464.5891 357.7301 458.9473 356.7118 454.0998 C 356.2904 452.0937 354.5634 455.4464 354.4581 455.6563 C 352.6661 459.2301 350.9589 464.5982 352.0565 468.4045 C 352.3758 469.5118 352.8632 466.8208 353.0327 465.5966 C 353.7187 460.6434 353.0935 455.6635 351.3376 450.8988 C 351.3082 450.819 351.1403 451.0706 350.8294 451.6883 C 349.8018 453.73 348.4475 459.0139 348.3453 461.0674 C 348.2627 462.7251 348.3461 467.1694 350.229 468.0747 C 350.3567 468.136 350.4861 466.9312 350.5307 466.3117 C 350.8508 461.8599 351.1709 457.1787 350.7385 452.7315 C 350.6903 452.2354 350.168 449.7172 349.3273 450.8302 C 347.3031 453.5101 347.4944 458.225 347.0005 461.3687 C 346.6473 463.6174 345.7868 470.47 348.2508 471.9107 C 350.0521 472.964 350.9359 467.6388 351.0645 467.1072 C 352.365 461.735 352.3892 455.7853 350.8772 450.4327 C 350.5718 449.3517 350.3753 452.2087 350.3359 453.0154 C 350.1332 457.1761 349.1705 461.2487 348.6679 465.381 C 348.4649 467.0509 349.6318 472.8268 351.7734 473.5718 C 353.4968 474.1713 354.8008 469.131 354.9665 468.1092 C 355.8396 462.7246 354.4021 457.3076 352.968 452.0626 C 352.3927 449.9583 349.5178 448.4181 348.0288 451.2057 C 345.8986 455.1935 346.1039 464.7928 346.5469 469.1559 C 346.7845 471.4945 348.607 473.9064 351.8121 472.1577 C 353.3361 471.3261 354.3281 465.604 354.5605 464.0922 C 355.066 460.8024 355.5965 455.464 353.5434 452.4625 C 352.9915 451.6555 352.2391 453.9719 351.9173 455.9951 C 351.1054 461.1002 350.8562 466.221 350.7743 471.3611 "
   id="path1100" /><path
   style="font-size:12;fill:none;fill-rule:evenodd;stroke:#000000;stroke-width:0.540929;"
   d="M 350.9114 449.4197 C 350.9114 451.1761 349.4239 452.6862 349.351 454.5755 C 349.2567 457.0174 348.6021 459.6626 348.3289 462.1237 C 348.0172 464.9308 347.5989 469.6954 349.1208 472.2544 "
   id="path1101" /><path
   style="font-size:12;fill:none;fill-rule:evenodd;stroke:#000000;stroke-width:0.540929;"
   d="M 350.9114 450.4251 C 350.9114 456.8344 346.806 461.7765 348.5168 468.6483 C 348.7456 469.567 349.2153 470.3139 349.827 471.1021 "
   id="path1102" /><path
   style="font-size:12;fill:none;fill-rule:evenodd;stroke:#000000;stroke-width:0.540929;"
   d="M 349.1238 448.4142 C 345.6721 448.4142 345.4289 455.0307 345.4946 456.7117 C 345.5643 458.4966 345.6161 460.282 345.6686 462.0673 "
   id="path1103" /><path
   style="font-size:12;fill:none;fill-rule:evenodd;stroke:#000000;stroke-width:0.540929;"
   d="M 348.945 448.8451 C 347.086 449.5919 347.6127 454.2593 347.6617 455.5884 "
   id="path1104" /><path
   style="font-size:12;fill:none;fill-rule:evenodd;stroke:#000000;stroke-width:0.540929;"
   d="M 355.2016 449.1323 C 353.3711 449.1323 353.3438 451.6367 353.241 452.6292 "
   id="path1105" /><path
   style="font-size:12;fill:none;fill-rule:evenodd;stroke:#000000;stroke-width:0.540929;"
   d="M 355.2016 449.7069 C 353.9693 451.1923 353.7809 452.7327 353.9904 454.4868 "
   id="path1106" /><path
   style="font-size:12;fill:none;fill-rule:evenodd;stroke:#000000;stroke-width:0.540929;"
   d="M 345.5486 452.5797 C 344.9822 453.4899 344.9511 454.4389 344.3673 455.3536 C 343.1157 457.3148 342.8168 463.2418 343.5171 465.4188 C 344.0472 467.0668 344.3592 468.7946 345.6614 470.1543 C 345.8549 470.3563 345.9665 470.6686 346.0729 470.8972 "
   id="path1107" /><path
   style="font-size:12;fill:none;fill-rule:evenodd;stroke:#000000;stroke-width:0.540929;"
   d="M 348.0512 465.6508 C 348.0512 466.8222 348.9706 468.4902 349.1615 469.7997 C 349.37 471.2309 353.003 474.6209 353.6473 471.4914 C 353.8493 470.5099 354.1148 469.5354 354.3527 468.5593 "
   id="path1108" /><path
   style="font-size:12;fill:none;fill-rule:evenodd;stroke:#000000;stroke-width:0.540929;"
   d="M 347.3362 469.96 C 348.5176 469.96 351.8218 473.7056 352.606 470.2198 C 352.712 469.7486 352.8506 469.2647 352.9807 468.8001 "
   id="path1109" /><path
   style="font-size:12;fill:none;fill-rule:evenodd;stroke:#000000;stroke-width:0.540929;"
   d="M 357.5255 452.8669 C 355.1289 450.9409 353.4606 446.6901 350.03 450.8254 C 349.6667 451.2633 349.3991 451.7532 349.1302 452.232 "
   id="path1110" /><path
   sodipodi:type="arc"
   style="font-size:12;fill:#76625a;fill-rule:evenodd;stroke:#2e2015;stroke-width:1.5;"
   id="path1111"
   d="M 367.3267 359.0331 A 6.51709 25.32776 0 1 0 354.2925 359.0331 A 6.51709 25.32776 0 1 0  367.3267 359.0331 z"
   sodipodi:cx="360.80957"
   sodipodi:cy="359.033081"
   sodipodi:rx="6.51708984"
   sodipodi:ry="25.3277588"
   transform="matrix(0.603448,0,0,0.484888,140.3321,286.8919)" /><path
   sodipodi:type="arc"
   style="fill-rule:evenodd;stroke:#000000;fill:#383225;fill-opacity:1;stroke-opacity:1;stroke-width:0.8327;stroke-linejoin:miter;stroke-linecap:butt;stroke-dasharray:none;"
   id="path1112"
   d="M 322.2995 391.4705 A 3.850998 15.10779 0 1 0 314.5975 391.4705 A 3.850998 15.10779 0 1 0  322.2995 391.4705 z"
   sodipodi:cx="318.448486"
   sodipodi:cy="391.470459"
   sodipodi:rx="3.85099792"
   sodipodi:ry="15.1077881"
   transform="matrix(0.417772,0,0,0.394566,225.3806,306.9527)" /></g><path
   style="font-size:12;fill:none;fill-rule:evenodd;stroke:#000000;stroke-width:1.990198;"
   d="M 362.0752 308.9507 C 354.8422 312.9429 349.7327 334.6191 355.067 341.2656 C 362.5525 350.5927 367.6085 332.5128 351.5763 335.1789 C 337.9463 337.4458 334.5783 352.5741 317.3111 354.4806 C 308.376 355.4671 303.078 350.871 297.6103 343.5034 "
   id="path1117" /><path
   style="font-size:12;fill:none;fill-rule:evenodd;stroke:#000000;stroke-width:1.990198;"
   d="M 274.5441 338.6848 C 266.0338 357.4741 239.9335 347.824 229.4421 336.6405 C 227.6516 334.7317 225.6792 333.1162 223.6472 331.5476 "
   id="path1118" /><path
   style="font-size:12;fill:none;fill-rule:evenodd;stroke:#000000;stroke-width:1.990198;"
   d="M 205.7168 327.1215 C 201.1441 329.6449 195.7528 336.2736 190.5366 339.5386 C 165.7107 355.0756 139.7483 338.9932 118.0231 324.5452 "
   id="path1119" /><path
   style="font-size:12;fill:none;fill-rule:evenodd;stroke:#000000;stroke-width:1.990198;"
   d="M 366.564 313.0801 C 366.564 330.6893 385.1859 330.1936 395.4024 323.7919 C 406.1857 317.0349 413.3384 305.7934 421.3017 295.5751 "
   id="path1120" /><path
   style="font-size:12;fill:none;fill-rule:evenodd;stroke:#000000;stroke-width:1.990198;"
   d="M 395.7408 282.5201 C 407.6141 282.5201 410.0335 290.4203 419.1657 275.8072 C 419.4556 275.3438 421.5229 273.5438 421.97 273.4043 C 421.4603 273.5633 423.0509 273.5867 423.559 273.4222 "
   id="path1122" /><rect
   style="font-size:12;fill:#e4e419;fill-opacity:0.2089;fill-rule:evenodd;stroke:#4f3030;stroke-width:1.375;stroke-opacity:0.7975;stroke-dasharray:none;"
   id="rect1140"
   width="374.462555"
   height="124.440437"
   x="32.5374718"
   y="235.559814" /><rect
   style="font-size:12;fill:#9393ad;fill-rule:evenodd;stroke:#4f3030;stroke-width:0.231495;"
   id="rect1144"
   width="37.0731659"
   height="43.4541817"
   x="426.305389"
   y="279.863586" /><image
   xlink:href="/home/xkratoc3/esittely_01.gif"
   sodipodi:absref="/home/xkratoc3/esittely_01.gif"
   width="91.8343658"
   height="141.886536"
   id="image1134"
   x="462.922554"
   y="237.954559" /><rect
   style="font-size:12;fill:#9393ad;fill-rule:evenodd;stroke:#4f3030;stroke-width:0.491916;"
   id="rect1145"
   width="22.225618"
   height="42.5735664"
   x="1902.575"
   y="2157.5732"
   transform="matrix(0.221466,-0.975168,0,1,0,0)" /><rect
   style="font-size:12;fill:#9393ad;fill-rule:evenodd;stroke:#4f3030;stroke-width:0.491915;"
   id="rect1146"
   width="22.2255875"
   height="42.5735664"
   x="2069.55009"
   y="2321.19625"
   transform="matrix(0.221466,-0.975168,0,1,0,0)" /><rect
   style="font-size:12;fill:#9393ad;fill-rule:evenodd;stroke:#4f3030;stroke-width:0.231495;"
   id="rect1147"
   width="36.7792549"
   height="43.4541817"
   x="421.308716"
   y="302.720856" /><rect
   style="font-size:12;fill:#3f3b32;fill-rule:evenodd;stroke:#4f3030;stroke-width:0.27162;"
   id="rect1154"
   width="24.1519527"
   height="43.4541817"
   x="424.563942"
   y="235.875259" /><rect
   style="font-size:12;fill:#3f3b32;fill-rule:evenodd;stroke:#4f3030;stroke-width:0.709976;"
   id="rect1155"
   width="21.9096557"
   height="42.5735664"
   x="2878.8168"
   y="3106.06914"
   transform="matrix(0.146358,-0.989232,0,1,0,0)" /><rect
   style="font-size:12;fill:#3f3b32;fill-rule:evenodd;stroke:#4f3030;stroke-width:0.709976;"
   id="rect1156"
   width="21.9096252"
   height="42.5735664"
   x="3043.41793"
   y="3269.69219"
   transform="matrix(0.146358,-0.989232,0,1,0,0)" /><rect
   style="font-size:12;fill:#3f3b32;fill-rule:evenodd;stroke:#4f3030;stroke-width:0.27162;"
   id="rect1157"
   width="23.9604797"
   height="43.4541817"
   x="421.308784"
   y="258.732498" /><rect
   style="font-size:12;fill:#e2e73b;fill-rule:evenodd;stroke-width:1;stroke:#474226;stroke-opacity:0.8671;fill-opacity:0.4873;"
   id="rect1158"
   width="51.6161377"
   height="106.458244"
   x="62.3695005"
   y="254.462617" /><path
   style="fill:none;fill-rule:evenodd;stroke:black;stroke-opacity:1;stroke-width:1pt;stroke-linejoin:miter;stroke-linecap:butt;fill-opacity:1;"
   d="M 63.98252 308.2293 L 74.19822 308.2293 "
   id="path1159" /><path
   style="fill:none;fill-rule:evenodd;stroke:black;stroke-opacity:1;stroke-width:1pt;stroke-linejoin:miter;stroke-linecap:butt;fill-opacity:1;"
   d="M 73.66055 308.2293 L 73.66055 311.7241 "
   id="path1161" /></svg>
